<?xml version="1.0" encoding="UTF-8" standalone="no"?>
<svg
   width="8.5in"
   height="11in"
   viewBox="0 0 215.9 279.4"
   version="1.1"
   id="svg8"
   inkscape:export-filename="/home/juferoga/GLud_Logo.png"
   inkscape:export-xdpi="96"
   inkscape:export-ydpi="96"
   inkscape:version="1.1.2 (0a00cf5339, 2022-02-04)"
   sodipodi:docname="GLUD_LOGO.svg"
   xmlns:inkscape="http://www.inkscape.org/namespaces/inkscape"
   xmlns:sodipodi="http://sodipodi.sourceforge.net/DTD/sodipodi-0.dtd"
   xmlns="http://www.w3.org/2000/svg"
   xmlns:svg="http://www.w3.org/2000/svg"
   xmlns:rdf="http://www.w3.org/1999/02/22-rdf-syntax-ns#"
   xmlns:cc="http://creativecommons.org/ns#"
   xmlns:dc="http://purl.org/dc/elements/1.1/">
  <defs
     id="defs2" />
  <sodipodi:namedview
     id="base"
     pagecolor="#ffffff"
     bordercolor="#666666"
     borderopacity="1.0"
     inkscape:pageopacity="1"
     inkscape:pageshadow="2"
     inkscape:zoom="0.43556115"
     inkscape:cx="621.03795"
     inkscape:cy="520.01884"
     inkscape:document-units="mm"
     inkscape:current-layer="g951"
     inkscape:document-rotation="0"
     showgrid="true"
     inkscape:window-width="1312"
     inkscape:window-height="704"
     inkscape:window-x="0"
     inkscape:window-y="0"
     inkscape:window-maximized="1"
     inkscape:pagecheckerboard="0"
     units="in">
    <inkscape:grid
       type="xygrid"
       id="grid4545"
       originx="1.0083886"
       originy="16.378328" />
  </sodipodi:namedview>
  <metadata
     id="metadata5">
    <rdf:RDF>
      <cc:Work
         rdf:about="">
        <dc:format>image/svg+xml</dc:format>
        <dc:type
           rdf:resource="http://purl.org/dc/dcmitype/StillImage" />
      </cc:Work>
    </rdf:RDF>
  </metadata>
  <g
     inkscape:label="Capa 1"
     inkscape:groupmode="layer"
     id="layer1"
     transform="translate(1.0083887,16.378328)">
    <g
       inkscape:label="Capa 1"
       id="layer1-6"
       transform="translate(-14.486196,-66.824194)">
      <g
         id="g951"
         transform="matrix(3.9900596,0,0,3.3996058,-914.86969,-277.94319)">
        <rect
           style="fill:none;fill-opacity:1;stroke:#ffffff;stroke-width:0.0766282;stroke-opacity:0;paint-order:stroke markers fill;stop-color:#000000"
           id="rect1241"
           width="53.27179"
           height="62.030125"
           x="232.70338"
           y="101.22144" />
        <path
           inkscape:export-ydpi="96"
           inkscape:export-xdpi="96"
           inkscape:export-filename="/home/juferoga/Imágenes/favicon.png"
           sodipodi:nodetypes="ccccscccccccccccccccccccsccccccccccccccscccccccsscccccccccccccccscccsccsccccscscccscccccscccscsscsccccccccccccccsccccccccccscsccc"
           style="fill:#000000;fill-opacity:1;stroke-width:0.0845219"
           d="m 258.84034,144.257 c -0.95448,-0.19249 -1.25578,-0.36384 -1.5114,-0.85973 -0.31027,-0.60187 -0.23562,-0.85003 0.7865,-2.61385 0.29259,-0.50494 0.65527,-1.24171 0.80592,-1.63728 0.24759,-0.65009 0.27393,-0.79391 0.27393,-1.49589 0,-0.69021 -0.0159,-0.78077 -0.14266,-0.81326 -0.0981,-0.0251 -0.24011,0.10998 -0.45458,0.43285 l -0.3119,0.46948 -0.54341,-0.0102 c -0.43888,-0.007 -0.68562,-0.0812 -1.28267,-0.37904 -0.40658,-0.2028 -0.87231,-0.37209 -1.03496,-0.37624 l -0.29569,-0.007 -0.21067,0.86975 c -0.11585,0.47837 -0.2597,1.08716 -0.31966,1.35293 -0.20334,0.90121 -0.68804,1.56957 -0.97146,1.33957 -0.2319,-0.18823 -0.32144,-0.60004 -0.31867,-1.46572 0.003,-1.29829 0.43729,-3.71299 0.77405,-4.31502 0.0942,-0.1685 0.11737,-0.16952 0.45357,-0.0196 0.19484,0.0867 0.78641,0.533 1.31458,0.99156 0.52818,0.45857 1.13882,0.94056 1.35696,1.07113 0.69158,0.41391 0.85234,0.19341 1.06543,-1.46133 0.17608,-1.36731 0.18511,-2.34642 0.0282,-3.05314 -0.0645,-0.29063 -0.11784,-0.62851 -0.11846,-0.75083 -0.002,-0.34045 0.44295,-1.39785 0.95658,-2.27459 1.87428,-3.1993 2.05964,-3.82313 1.99706,-6.72108 -0.0306,-1.41689 -0.0642,-1.80723 -0.20016,-2.33015 -0.54887,-2.10989 -2.18789,-4.851 -3.92336,-6.56146 -1.07378,-1.05833 -1.74161,-1.35502 -3.22574,-1.43299 -1.17456,-0.0617 -2.12509,0.11795 -3.27854,0.61965 -1.08223,0.47072 -1.73,0.9378 -2.25471,1.62575 -0.45592,0.59777 -0.62285,0.90115 -1.46926,2.67016 -0.27059,0.56551 -0.54094,1.08134 -0.60079,1.1463 -0.16865,0.18295 -0.47033,0.0374 -0.52625,-0.25388 -0.0787,-0.40984 0.16616,-1.76704 0.45162,-2.50344 0.72347,-1.8663 1.8148,-2.9594 3.73406,-3.7401 0.65551,-0.26665 0.77982,-0.34903 0.79949,-0.52977 0.0306,-0.28066 -0.19833,-0.35635 -0.89731,-0.29674 -0.35932,0.0306 -0.82877,0.17855 -1.4546,0.45823 -1.7814,0.79609 -2.1982,1.21916 -3.23424,3.28275 -0.78557,1.56477 -1.08671,2.03657 -1.29989,2.03657 -0.13239,0 -0.13974,-0.0487 -0.0945,-0.62596 0.13201,-1.68429 0.87037,-3.33041 2.13051,-4.74972 0.54957,-0.61897 1.85328,-1.73449 2.42419,-2.07424 0.79795,-0.47486 0.99293,-0.63255 1.10887,-0.89662 0.14176,-0.32291 0.0551,-0.52447 -0.33776,-0.78577 -0.23395,-0.1556 -0.42216,-0.19055 -0.96549,-0.17934 -1.7142,0.0354 -2.84959,1.05964 -4.56392,4.11736 -0.43954,0.78398 -0.82949,1.42541 -0.86655,1.42541 -0.0976,0 -0.0845,-0.17118 0.0755,-0.98924 0.42761,-2.18565 1.45683,-4.12815 2.71786,-5.12955 0.59549,-0.4729 1.40356,-0.80352 2.27704,-0.9317 1.012,-0.14848 1.28306,-0.25441 1.38275,-0.54042 0.0673,-0.19313 0.0578,-0.27125 -0.0521,-0.43007 -0.22209,-0.32063 -0.63783,-0.40541 -1.65346,-0.33693 -1.53075,0.10318 -1.79669,0.23208 -4.54475,2.20349 -1.23926,0.88901 -1.6824,0.95878 -1.41523,0.2228 0.25716,-0.70844 1.87223,-2.39452 2.89003,-3.01709 1.46588,-0.89664 3.17663,-1.07266 5.64748,-0.58104 0.38626,0.0768 0.79377,0.16984 0.90558,0.20668 0.32386,0.1067 0.58678,-0.0191 0.55924,-0.26738 -0.0474,-0.42779 -1.09598,-1.10907 -2.38216,-1.54774 -0.55115,-0.18797 -0.80416,-0.20475 -3.22245,-0.21357 -2.15666,-0.007 -2.66386,-0.035 -2.84611,-0.15255 -0.3302,-0.21292 -0.27569,-0.40127 0.18542,-0.64044 1.12831,-0.58525 3.30664,-0.846662 5.14722,-0.61772 1.35054,0.16799 1.7604,0.31184 3.0948,1.08614 1.51094,0.87675 1.84125,1.02254 2.69826,1.19108 1.95582,0.38459 4.13752,1.45919 4.92858,2.42755 0.23007,0.28167 0.24615,0.34239 0.24615,0.93008 0,0.34584 -0.05,0.8139 -0.11105,1.04021 -0.14296,0.52967 -0.6032,1.41565 -1.1794,2.27041 -0.61595,0.91366 -0.70552,1.10091 -0.70552,1.47489 0,0.70272 0.56964,1.58798 1.23583,1.92057 0.30749,0.15352 0.35949,0.1531 0.89445,-0.007 1.02643,-0.30735 1.28028,-0.3438 1.6182,-0.23258 0.40662,0.13383 0.93746,0.0685 1.30651,-0.16076 0.15775,-0.0981 0.5278,-0.4641 0.82233,-0.81354 0.29453,-0.34944 0.7731,-0.91066 1.0635,-1.24716 0.77117,-0.89364 0.77837,-0.92119 0.71856,-2.74995 -0.0698,-2.13163 -0.28928,-3.73637 -0.53592,-3.91681 -0.18716,-0.1369 -0.95959,0.0602 -1.86202,0.47523 -0.99497,0.45755 -2.25492,0.95708 -2.29195,0.90865 -0.0738,-0.0965 0.46504,-0.39204 1.74046,-0.95507 1.60492,-0.70852 2.09251,-0.99506 2.20859,-1.29804 0.19654,-0.51293 0.44246,-0.68418 1.21159,-0.84365 0.18206,-0.0378 0.40727,-0.13393 0.50043,-0.2137 0.12303,-0.10545 0.26512,-0.12749 0.51909,-0.0807 0.92041,0.16941 1.02303,0.16778 1.55097,-0.0251 0.29479,-0.1076 0.53596,-0.17714 0.53596,-0.15448 0,0.0226 -0.21239,0.16709 -0.47197,0.32096 -0.39173,0.23217 -0.48608,0.33502 -0.55498,0.60494 -0.0457,0.17886 -0.19921,0.51611 -0.3412,0.74949 -0.43877,0.72108 -0.35157,1.2967 0.5613,3.70545 0.40982,1.08136 0.57424,1.61356 0.54225,1.75518 -0.14525,0.64326 -1.06633,1.72281 -2.71415,3.1811 -1.46439,1.29595 -1.90029,1.73595 -1.90029,1.9181 0,0.098 0.2009,0.63383 0.44645,1.19106 1.31361,2.98104 1.75295,4.91538 1.82247,8.02435 0.0667,2.98195 -0.19535,4.70969 -1.10318,7.27395 -0.60541,1.70997 -0.94448,2.44164 -1.40181,3.02483 -0.33205,0.42342 -1.09171,0.95716 -1.36251,0.95729 -0.24828,1.2e-4 -0.77118,0.27122 -1.03984,0.53907 -0.37452,0.37343 -0.54401,0.90365 -0.61868,1.93536 -0.10716,1.48061 -0.40204,2.8032 -1.05187,4.7178 -0.14294,0.42116 -0.24373,0.82072 -0.22399,0.88801 0.0423,0.14438 0.121,0.1676 1.44182,0.42637 1.49181,0.29228 2.10729,0.53041 2.34707,0.90807 0.13799,0.21739 0.0527,0.40669 -0.28495,0.63182 -0.76402,0.50952 -2.11089,0.61385 -3.72446,0.28846 z m 7.84618,-34.64459 c 0.5535,-0.362 0.82556,-0.70717 0.82496,-1.04666 -9.4e-4,-0.72442 -1.58026,-4.31153 -1.89786,-4.31153 -0.1063,0 -0.11368,0.13361 -0.0674,1.22216 0.058,1.36574 0.30329,4.22855 0.37529,4.38083 0.0759,0.16064 0.21124,0.11735 0.76502,-0.2448 z m 2.38743,-8.68873 c 0.0189,-0.0248 0.4652,-0.25801 0.99181,-0.51851 1.76701,-0.874029 3.2104,-1.926813 4.48513,-3.271295 0.31386,-0.331055 0.58391,-0.571253 0.60013,-0.533813 0.0162,0.03742 0.0712,0.307278 0.12204,0.599589 0.0974,0.559234 0.38034,1.387852 0.56598,1.657418 0.0604,0.08776 0.0802,0.183494 0.0439,0.212781 -0.0363,0.02914 -0.54574,0.144591 -1.13217,0.256152 -1.27751,0.243056 -1.95226,0.41529 -2.84042,0.725018 -0.96821,0.33766 -3.84239,1.48597 -3.90945,1.48597 -0.0317,0 0.45301,-0.29642 0.47197,-0.32097 z"
           id="path231"
           inkscape:connector-curvature="0" />
        <text
           inkscape:export-ydpi="96"
           inkscape:export-xdpi="96"
           inkscape:export-filename="/home/juferoga/Imágenes/gludlogow.png"
           id="text47"
           y="144.10413"
           x="273.91501"
           style="font-style:normal;font-weight:normal;font-size:13.2982px;line-height:1.25;font-family:sans-serif;letter-spacing:-0.748399px;word-spacing:0px;fill:#070707;fill-opacity:1;stroke:none;stroke-width:0.332453"
           xml:space="preserve"
           transform="scale(0.8923427,1.1206457)"><tspan
             style="font-style:normal;font-variant:normal;font-weight:normal;font-stretch:normal;font-family:'URW Gothic';-inkscape-font-specification:'URW Gothic';letter-spacing:-0.748399px;fill:#070707;fill-opacity:1;stroke-width:0.332453"
             y="144.10413"
             x="273.91501"
             id="tspan45"
             sodipodi:role="line">GLUD </tspan></text>
        <text
           inkscape:export-ydpi="96"
           inkscape:export-xdpi="96"
           inkscape:export-filename="/home/juferoga/Imágenes/gludlogow.png"
           id="text47-3"
           y="156.04936"
           x="266.03812"
           style="font-style:normal;font-weight:normal;font-size:13.2982px;line-height:1.25;font-family:sans-serif;letter-spacing:-0.748399px;word-spacing:0px;fill:#070707;fill-opacity:1;stroke:none;stroke-width:0.332453"
           xml:space="preserve"
           transform="scale(0.8923427,1.1206457)"><tspan
             style="font-style:normal;font-variant:normal;font-weight:normal;font-stretch:normal;font-family:'URW Gothic';-inkscape-font-specification:'URW Gothic';letter-spacing:-0.748399px;fill:#070707;fill-opacity:1;stroke-width:0.332453"
             y="156.04936"
             x="266.03812"
             id="tspan45-6"
             sodipodi:role="line">Ciencias </tspan></text>
        <path
           style="fill:none;stroke:#000000;stroke-width:0.859349;stroke-linecap:butt;stroke-linejoin:miter;stroke-miterlimit:4;stroke-dasharray:none;stroke-opacity:1"
           d="m 243.24486,148.51337 c 32.28567,0 32.28567,0 32.28567,0"
           id="path3720"
           inkscape:connector-curvature="0" />
        <path
           inkscape:connector-curvature="0"
           id="path4543"
           d="m 241.17944,146.62765 c 36.4165,0 36.4165,0 36.4165,0"
           style="fill:none;stroke:#000000;stroke-width:0.9693;stroke-linecap:butt;stroke-linejoin:miter;stroke-miterlimit:4;stroke-dasharray:none;stroke-opacity:1" />
      </g>
    </g>
  </g>
</svg>
